# Blender v2.80 (sub 35) OBJ File: 'text.blend'
# www.blender.org
g Snare
v 0.458423 -0.246960 -0.000000
v 0.458423 0.249572 -0.000000
v 0.657267 0.249572 -0.000000
v 0.657267 0.153618 -0.000000
v 0.559579 0.153618 -0.000000
v 0.559579 0.057086 -0.000000
v 0.653221 0.057086 -0.000000
v 0.653221 -0.036555 -0.000000
v 0.559579 -0.036555 -0.000000
v 0.559579 -0.150428 -0.000000
v 0.663626 -0.150428 -0.000000
v 0.663626 -0.246960 -0.000000
v -0.631750 -0.218058 0.000000
v -0.648449 -0.191147 0.000000
v -0.658468 -0.155116 0.000000
v -0.661808 -0.109966 0.000000
v -0.661808 -0.061411 0.000000
v -0.564120 -0.061411 0.000000
v -0.564120 -0.123260 0.000000
v -0.561487 -0.143813 0.000000
v -0.553587 -0.156144 0.000000
v -0.540421 -0.160255 0.000000
v -0.532457 -0.159388 0.000000
v -0.526291 -0.156786 0.000000
v -0.521923 -0.152451 0.000000
v -0.519033 -0.146061 0.000000
v -0.517299 -0.137294 0.000000
v -0.516721 -0.126151 0.000000
v -0.517363 -0.110897 0.000000
v -0.519290 -0.097506 0.000000
v -0.522501 -0.085977 0.000000
v -0.526708 -0.075958 0.000000
v -0.531622 -0.067095 0.000000
v -0.537241 -0.059388 0.000000
v -0.544788 -0.050942 0.000000
v -0.555482 -0.039863 0.000000
v -0.569322 -0.026151 0.000000
v -0.612097 0.016624 0.000000
v -0.639714 0.050150 0.000000
v -0.656284 0.085988 0.000000
v -0.661808 0.124138 0.000000
v -0.658564 0.163156 0.000000
v -0.648834 0.195429 0.000000
v -0.632617 0.220959 0.000000
v -0.610170 0.239424 0.000000
v -0.581750 0.250503 0.000000
v -0.547357 0.254196 0.000000
v -0.506830 0.250246 0.000000
v -0.474653 0.238397 0.000000
v -0.450825 0.218647 0.000000
v -0.434447 0.190484 0.000000
v -0.424621 0.153393 0.000000
v -0.421345 0.107375 0.000000
v -0.522501 0.107375 0.000000
v -0.523080 0.141480 0.000000
v -0.523690 0.147581 0.000000
v -0.525520 0.152783 0.000000
v -0.528571 0.157086 0.000000
v -0.532713 0.160298 0.000000
v -0.537819 0.162225 0.000000
v -0.543889 0.162867 0.000000
v -0.550954 0.162160 0.000000
v -0.556734 0.160041 0.000000
v -0.561230 0.156508 0.000000
v -0.564441 0.151756 0.000000
v -0.566368 0.145975 0.000000
v -0.567010 0.139167 0.000000
v -0.563927 0.122790 0.000000
v -0.554679 0.106027 0.000000
v -0.539265 0.088878 0.000000
v -0.481461 0.033387 0.000000
v -0.468744 0.020510 0.000000
v -0.457569 0.008082 0.000000
v -0.447935 -0.003896 0.000000
v -0.439650 -0.016356 0.000000
v -0.432521 -0.030229 0.000000
v -0.426548 -0.045515 0.000000
v -0.422052 -0.062502 0.000000
v -0.419354 -0.081481 0.000000
v -0.418455 -0.102451 0.000000
v -0.421442 -0.147441 0.000000
v -0.430401 -0.184532 0.000000
v -0.445334 -0.213723 0.000000
v -0.467139 -0.234757 0.000000
v -0.496715 -0.247377 0.000000
v -0.534062 -0.251584 0.000000
v -0.574974 -0.247859 0.000000
v -0.607537 -0.236684 0.000000
v -0.385507 -0.246960 0.000000
v -0.385507 0.249572 0.000000
v -0.283195 0.249572 0.000000
v -0.237530 0.012000 0.000000
v -0.237530 0.249572 0.000000
v -0.141577 0.249572 0.000000
v -0.141577 -0.246960 0.000000
v -0.238686 -0.246960 0.000000
v -0.288397 0.001595 0.000000
v -0.288397 -0.246960 0.000000
v -0.110941 -0.246960 0.000000
v -0.062964 0.249572 -0.000000
v 0.105244 0.249572 -0.000000
v 0.152643 -0.246960 -0.000000
v 0.058423 -0.246960 0.000000
v 0.051487 -0.166613 0.000000
v -0.008629 -0.166613 0.000000
v -0.014409 -0.246960 0.000000
v -0.001114 -0.087422 0.000000
v 0.043972 -0.087422 -0.000000
v 0.022007 0.165179 -0.000000
v 0.017383 0.165179 -0.000000
v 0.182701 0.249572 -0.000000
v 0.335302 0.249572 -0.000000
v 0.357749 0.247741 -0.000000
v 0.376535 0.242250 -0.000000
v 0.391660 0.233098 -0.000000
v 0.403510 0.220638 -0.000000
v 0.412470 0.205224 -0.000000
v 0.418539 0.186855 -0.000000
v 0.422393 0.165179 -0.000000
v 0.424705 0.139842 -0.000000
v 0.425475 0.110844 -0.000000
v 0.424255 0.084768 -0.000000
v 0.420594 0.062803 -0.000000
v 0.414493 0.044948 -0.000000
v 0.405373 0.030754 -0.000000
v 0.392656 0.019771 -0.000000
v 0.376342 0.012000 -0.000000
v 0.389991 0.007440 -0.000000
v 0.400877 -0.000075 -0.000000
v 0.409001 -0.010544 -0.000000
v 0.414621 -0.023903 -0.000000
v 0.417993 -0.040088 -0.000000
v 0.419117 -0.059099 -0.000000
v 0.417961 -0.246960 -0.000000
v 0.320851 -0.246960 -0.000000
v 0.320851 -0.052740 -0.000000
v 0.319952 -0.040537 -0.000000
v 0.317254 -0.031674 -0.000000
v 0.312759 -0.026151 -0.000000
v 0.305886 -0.022939 -0.000000
v 0.296060 -0.021013 -0.000000
v 0.283279 -0.020370 -0.000000
v 0.283279 -0.246960 -0.000000
v 0.182701 -0.246960 -0.000000
v 0.307556 0.065757 -0.000000
v 0.319117 0.070767 -0.000000
v 0.326053 0.085795 -0.000000
v 0.328366 0.110844 -0.000000
v 0.328173 0.122854 -0.000000
v 0.327595 0.132681 -0.000000
v 0.326631 0.140323 -0.000000
v 0.325154 0.146200 -0.000000
v 0.323035 0.150728 -0.000000
v 0.320273 0.153907 -0.000000
v 0.316741 0.155995 -0.000000
v 0.312309 0.157247 -0.000000
v 0.306978 0.157664 -0.000000
v 0.283857 0.157664 -0.000000
v 0.283857 0.065757 -0.000000
vn 0.0000 0.0000 1.0000
s off
f 46//1 48//1 47//1
f 45//1 48//1 46//1
f 45//1 49//1 48//1
f 44//1 49//1 45//1
f 44//1 50//1 49//1
f 43//1 50//1 44//1
f 43//1 51//1 50//1
f 42//1 51//1 43//1
f 42//1 61//1 51//1
f 61//1 52//1 51//1
f 41//1 62//1 42//1
f 62//1 61//1 42//1
f 60//1 52//1 61//1
f 59//1 52//1 60//1
f 41//1 63//1 62//1
f 58//1 52//1 59//1
f 41//1 64//1 63//1
f 57//1 52//1 58//1
f 41//1 65//1 64//1
f 57//1 53//1 52//1
f 56//1 53//1 57//1
f 41//1 66//1 65//1
f 55//1 53//1 56//1
f 41//1 67//1 66//1
f 54//1 53//1 55//1
f 41//1 68//1 67//1
f 40//1 68//1 41//1
f 40//1 69//1 68//1
f 40//1 70//1 69//1
f 40//1 71//1 70//1
f 39//1 71//1 40//1
f 38//1 71//1 39//1
f 38//1 72//1 71//1
f 38//1 73//1 72//1
f 37//1 73//1 38//1
f 37//1 74//1 73//1
f 37//1 75//1 74//1
f 37//1 76//1 75//1
f 36//1 76//1 37//1
f 36//1 77//1 76//1
f 35//1 77//1 36//1
f 35//1 78//1 77//1
f 34//1 78//1 35//1
f 33//1 78//1 34//1
f 16//1 18//1 17//1
f 16//1 19//1 18//1
f 33//1 79//1 78//1
f 32//1 79//1 33//1
f 31//1 79//1 32//1
f 31//1 80//1 79//1
f 30//1 80//1 31//1
f 29//1 80//1 30//1
f 29//1 81//1 80//1
f 15//1 19//1 16//1
f 28//1 81//1 29//1
f 15//1 20//1 19//1
f 27//1 81//1 28//1
f 26//1 81//1 27//1
f 15//1 21//1 20//1
f 25//1 81//1 26//1
f 25//1 82//1 81//1
f 24//1 82//1 25//1
f 14//1 21//1 15//1
f 14//1 22//1 21//1
f 23//1 82//1 24//1
f 22//1 82//1 23//1
f 14//1 82//1 22//1
f 14//1 83//1 82//1
f 13//1 83//1 14//1
f 13//1 84//1 83//1
f 88//1 84//1 13//1
f 88//1 85//1 84//1
f 87//1 85//1 88//1
f 87//1 86//1 85//1
f 89//1 91//1 90//1
f 89//1 97//1 91//1
f 97//1 92//1 91//1
f 92//1 94//1 93//1
f 92//1 95//1 94//1
f 97//1 95//1 92//1
f 89//1 98//1 97//1
f 96//1 95//1 97//1
f 99//1 110//1 100//1
f 110//1 101//1 100//1
f 110//1 109//1 101//1
f 109//1 102//1 101//1
f 99//1 107//1 110//1
f 108//1 102//1 109//1
f 99//1 108//1 107//1
f 99//1 105//1 108//1
f 105//1 104//1 108//1
f 104//1 102//1 108//1
f 99//1 106//1 105//1
f 103//1 102//1 104//1
f 144//1 158//1 111//1
f 158//1 112//1 111//1
f 158//1 113//1 112//1
f 158//1 114//1 113//1
f 158//1 115//1 114//1
f 158//1 116//1 115//1
f 158//1 117//1 116//1
f 158//1 118//1 117//1
f 158//1 119//1 118//1
f 158//1 157//1 119//1
f 157//1 156//1 119//1
f 156//1 120//1 119//1
f 144//1 159//1 158//1
f 155//1 120//1 156//1
f 154//1 120//1 155//1
f 153//1 120//1 154//1
f 152//1 120//1 153//1
f 151//1 120//1 152//1
f 150//1 120//1 151//1
f 150//1 121//1 120//1
f 149//1 121//1 150//1
f 148//1 121//1 149//1
f 147//1 121//1 148//1
f 147//1 122//1 121//1
f 146//1 122//1 147//1
f 146//1 123//1 122//1
f 145//1 123//1 146//1
f 144//1 145//1 159//1
f 144//1 142//1 145//1
f 142//1 123//1 145//1
f 142//1 124//1 123//1
f 142//1 125//1 124//1
f 142//1 126//1 125//1
f 142//1 127//1 126//1
f 142//1 128//1 127//1
f 142//1 129//1 128//1
f 142//1 130//1 129//1
f 142//1 131//1 130//1
f 144//1 143//1 142//1
f 141//1 131//1 142//1
f 140//1 131//1 141//1
f 139//1 131//1 140//1
f 139//1 132//1 131//1
f 138//1 132//1 139//1
f 137//1 132//1 138//1
f 137//1 133//1 132//1
f 136//1 133//1 137//1
f 135//1 133//1 136//1
f 135//1 134//1 133//1
f 1//1 5//1 2//1
f 5//1 3//1 2//1
f 5//1 4//1 3//1
f 1//1 6//1 5//1
f 1//1 9//1 6//1
f 9//1 7//1 6//1
f 9//1 8//1 7//1
f 1//1 10//1 9//1
f 1//1 11//1 10//1
f 1//1 12//1 11//1
g Kick
v 0.210983 -0.248266 -0.000000
v 0.210983 0.248266 0.000000
v 0.309249 0.248266 0.000000
v 0.309249 0.049422 0.000000
v 0.355491 0.248266 0.000000
v 0.455491 0.248266 0.000000
v 0.400000 0.021098 0.000000
v 0.467052 -0.248266 -0.000000
v 0.364162 -0.248266 -0.000000
v 0.309827 -0.007803 -0.000000
v 0.309827 -0.248266 -0.000000
v -0.467052 -0.248266 -0.000000
v -0.467052 0.248266 0.000000
v -0.368786 0.248266 0.000000
v -0.368786 0.049422 0.000000
v -0.322543 0.248266 0.000000
v -0.222543 0.248266 0.000000
v -0.278035 0.021098 0.000000
v -0.210983 -0.248266 -0.000000
v -0.313873 -0.248266 -0.000000
v -0.368208 -0.007803 -0.000000
v -0.368208 -0.248266 -0.000000
v -0.198844 -0.248266 -0.000000
v -0.198844 0.248266 0.000000
v -0.102890 0.248266 0.000000
v -0.102890 -0.248266 -0.000000
v -0.034393 -0.218786 -0.000000
v -0.044372 -0.206712 -0.000000
v -0.052537 -0.193224 -0.000000
v -0.058887 -0.178324 -0.000000
v -0.063423 -0.162010 -0.000000
v -0.066145 -0.144284 -0.000000
v -0.067052 -0.125144 -0.000000
v -0.067052 0.103757 0.000000
v -0.066233 0.127408 0.000000
v -0.063776 0.149037 0.000000
v -0.059682 0.168642 0.000000
v -0.053950 0.186224 0.000000
v -0.046580 0.201782 0.000000
v -0.037572 0.215318 0.000000
v -0.026814 0.226798 0.000000
v -0.014194 0.236191 0.000000
v 0.000289 0.243497 0.000000
v 0.016635 0.248715 0.000000
v 0.034843 0.251847 0.000000
v 0.054913 0.252890 0.000000
v 0.072624 0.252055 0.000000
v 0.089146 0.249550 0.000000
v 0.104480 0.245376 0.000000
v 0.118626 0.239531 0.000000
v 0.131583 0.232017 0.000000
v 0.143353 0.222832 0.000000
v 0.153597 0.212075 0.000000
v 0.161978 0.199839 0.000000
v 0.168497 0.186127 0.000000
v 0.173153 0.170938 0.000000
v 0.175947 0.154271 0.000000
v 0.176879 0.136127 0.000000
v 0.176879 0.050578 0.000000
v 0.078035 0.050578 0.000000
v 0.078035 0.123988 0.000000
v 0.077890 0.130748 0.000000
v 0.077457 0.136769 0.000000
v 0.076734 0.142052 0.000000
v 0.075723 0.146596 0.000000
v 0.074422 0.150401 0.000000
v 0.072832 0.153468 0.000000
v 0.070890 0.155941 0.000000
v 0.068529 0.157964 0.000000
v 0.065751 0.159538 0.000000
v 0.062556 0.160662 0.000000
v 0.058943 0.161336 0.000000
v 0.054913 0.161561 0.000000
v 0.050715 0.161304 0.000000
v 0.046981 0.160533 0.000000
v 0.043714 0.159249 0.000000
v 0.040912 0.157450 0.000000
v 0.038576 0.155138 0.000000
v 0.036705 0.152312 0.000000
v 0.035204 0.148988 0.000000
v 0.033976 0.145183 0.000000
v 0.033020 0.140896 0.000000
v 0.032338 0.136127 0.000000
v 0.031928 0.130877 0.000000
v 0.031792 0.125145 0.000000
v 0.031792 -0.123988 -0.000000
v 0.031952 -0.130242 -0.000000
v 0.032434 -0.135902 -0.000000
v 0.033237 -0.140968 -0.000000
v 0.034361 -0.145440 -0.000000
v 0.035806 -0.149318 -0.000000
v 0.037572 -0.152601 -0.000000
v 0.039660 -0.155339 -0.000000
v 0.042068 -0.157579 -0.000000
v 0.044798 -0.159321 -0.000000
v 0.047848 -0.160565 -0.000000
v 0.051220 -0.161312 -0.000000
v 0.054913 -0.161561 -0.000000
v 0.061978 -0.160517 -0.000000
v 0.067759 -0.157386 -0.000000
v 0.072254 -0.152168 -0.000000
v 0.075466 -0.144862 -0.000000
v 0.077392 -0.135469 -0.000000
v 0.078035 -0.123988 -0.000000
v 0.078035 -0.034393 -0.000000
v 0.178035 -0.034393 -0.000000
v 0.178035 -0.128035 -0.000000
v 0.174550 -0.166185 -0.000000
v 0.164098 -0.197399 -0.000000
v 0.146676 -0.221676 -0.000000
v 0.122286 -0.239017 -0.000000
v 0.090928 -0.249422 -0.000000
v 0.052601 -0.252890 -0.000000
v 0.035092 -0.251943 -0.000000
v 0.018786 -0.249101 -0.000000
v 0.003685 -0.244364 -0.000000
v -0.010212 -0.237733 -0.000000
v -0.022905 -0.229207 -0.000000
vn 0.0000 -0.0000 1.0000
s off
f 171//2 173//2 172//2
f 171//2 174//2 173//2
f 174//2 176//2 175//2
f 174//2 177//2 176//2
f 171//2 180//2 174//2
f 180//2 177//2 174//2
f 180//2 178//2 177//2
f 171//2 181//2 180//2
f 179//2 178//2 180//2
f 182//2 184//2 183//2
f 182//2 185//2 184//2
f 204//2 206//2 205//2
f 204//2 207//2 206//2
f 203//2 207//2 204//2
f 203//2 208//2 207//2
f 202//2 208//2 203//2
f 202//2 209//2 208//2
f 201//2 209//2 202//2
f 201//2 210//2 209//2
f 200//2 210//2 201//2
f 200//2 211//2 210//2
f 199//2 211//2 200//2
f 199//2 212//2 211//2
f 198//2 212//2 199//2
f 198//2 213//2 212//2
f 197//2 213//2 198//2
f 197//2 214//2 213//2
f 196//2 214//2 197//2
f 196//2 215//2 214//2
f 196//2 216//2 215//2
f 195//2 233//2 196//2
f 233//2 232//2 196//2
f 232//2 231//2 196//2
f 231//2 216//2 196//2
f 230//2 216//2 231//2
f 195//2 234//2 233//2
f 229//2 216//2 230//2
f 195//2 235//2 234//2
f 228//2 216//2 229//2
f 195//2 236//2 235//2
f 227//2 216//2 228//2
f 195//2 237//2 236//2
f 226//2 216//2 227//2
f 195//2 238//2 237//2
f 226//2 217//2 216//2
f 225//2 217//2 226//2
f 195//2 239//2 238//2
f 224//2 217//2 225//2
f 194//2 239//2 195//2
f 194//2 240//2 239//2
f 223//2 217//2 224//2
f 194//2 241//2 240//2
f 222//2 217//2 223//2
f 194//2 242//2 241//2
f 221//2 217//2 222//2
f 221//2 218//2 217//2
f 194//2 243//2 242//2
f 194//2 244//2 243//2
f 220//2 218//2 221//2
f 193//2 244//2 194//2
f 193//2 245//2 244//2
f 219//2 218//2 220//2
f 192//2 245//2 193//2
f 263//2 265//2 264//2
f 263//2 266//2 265//2
f 192//2 246//2 245//2
f 262//2 266//2 263//2
f 191//2 246//2 192//2
f 262//2 267//2 266//2
f 191//2 247//2 246//2
f 261//2 267//2 262//2
f 191//2 248//2 247//2
f 191//2 249//2 248//2
f 190//2 249//2 191//2
f 260//2 267//2 261//2
f 190//2 250//2 249//2
f 190//2 251//2 250//2
f 259//2 267//2 260//2
f 190//2 252//2 251//2
f 190//2 253//2 252//2
f 258//2 267//2 259//2
f 190//2 254//2 253//2
f 190//2 255//2 254//2
f 257//2 267//2 258//2
f 190//2 256//2 255//2
f 190//2 257//2 256//2
f 190//2 267//2 257//2
f 189//2 267//2 190//2
f 189//2 268//2 267//2
f 188//2 268//2 189//2
f 187//2 268//2 188//2
f 187//2 269//2 268//2
f 186//2 269//2 187//2
f 277//2 269//2 186//2
f 277//2 270//2 269//2
f 276//2 270//2 277//2
f 275//2 270//2 276//2
f 275//2 271//2 270//2
f 274//2 271//2 275//2
f 273//2 271//2 274//2
f 273//2 272//2 271//2
f 160//2 162//2 161//2
f 160//2 163//2 162//2
f 163//2 165//2 164//2
f 163//2 166//2 165//2
f 160//2 169//2 163//2
f 169//2 166//2 163//2
f 169//2 167//2 166//2
f 160//2 170//2 169//2
f 168//2 167//2 169//2
g Hat
v 0.226590 -0.248266 -0.000000
v 0.226590 0.152890 0.000000
v 0.167630 0.152890 0.000000
v 0.167630 0.248266 0.000000
v 0.384971 0.248266 0.000000
v 0.384971 0.152890 0.000000
v 0.326012 0.152890 0.000000
v 0.326012 -0.248266 -0.000000
v -0.384971 -0.248266 -0.000000
v -0.384971 0.248266 0.000000
v -0.286127 0.248266 0.000000
v -0.286127 0.070809 0.000000
v -0.239306 0.070809 0.000000
v -0.239306 0.248266 0.000000
v -0.140462 0.248266 0.000000
v -0.140462 -0.248266 -0.000000
v -0.239306 -0.248266 -0.000000
v -0.239306 -0.022832 -0.000000
v -0.286127 -0.022832 -0.000000
v -0.286127 -0.248266 -0.000000
v -0.109827 -0.248266 -0.000000
v -0.061850 0.248266 0.000000
v 0.106358 0.248266 0.000000
v 0.153757 -0.248266 -0.000000
v 0.059538 -0.248266 -0.000000
v 0.052601 -0.167919 -0.000000
v -0.007514 -0.167919 -0.000000
v -0.013295 -0.248266 -0.000000
v 0.000000 -0.088728 -0.000000
v 0.045087 -0.088728 -0.000000
v 0.023121 0.163873 0.000000
v 0.018497 0.163873 0.000000
vn 0.0000 -0.0000 1.0000
s off
f 286//3 288//3 287//3
f 286//3 289//3 288//3
f 290//3 292//3 291//3
f 290//3 293//3 292//3
f 286//3 296//3 289//3
f 296//3 290//3 289//3
f 296//3 295//3 290//3
f 295//3 293//3 290//3
f 286//3 297//3 296//3
f 294//3 293//3 295//3
f 298//3 309//3 299//3
f 309//3 300//3 299//3
f 309//3 308//3 300//3
f 308//3 301//3 300//3
f 298//3 306//3 309//3
f 307//3 301//3 308//3
f 298//3 307//3 306//3
f 298//3 304//3 307//3
f 304//3 303//3 307//3
f 303//3 301//3 307//3
f 298//3 305//3 304//3
f 302//3 301//3 303//3
f 280//3 282//3 281//3
f 280//3 283//3 282//3
f 279//3 283//3 280//3
f 278//3 284//3 279//3
f 284//3 283//3 279//3
f 278//3 285//3 284//3
